<?xml version="1.0" encoding="utf-8"?>
<!-- Generator: Adobe Illustrator 21.1.0, SVG Export Plug-In . SVG Version: 6.00 Build 0)  -->
<svg version="1.1" id="Calque_1" xmlns="http://www.w3.org/2000/svg" xmlns:xlink="http://www.w3.org/1999/xlink" x="0px" y="0px"
	 viewBox="0 0 17 17" style="enable-background:new 0 0 17 17;" xml:space="preserve">
<style type="text/css">
	.st0{fill:#FFFFFF;}
</style>
<g>
	<g>
		<g>
			<path class="st0" d="M4.2,10.8L1.4,8C0.5,7.1,0,5.9,0,4.7s0.5-2.4,1.4-3.3C2.2,0.5,3.4,0,4.7,0C5.9,0,7.1,0.5,8,1.4l2.9,2.9
				L9.6,5.4L6.7,2.6C6.2,2,5.5,1.7,4.7,1.7C3.9,1.7,3.1,2,2.6,2.6C2,3.1,1.7,3.9,1.7,4.7c0,0.8,0.3,1.5,0.9,2.1l2.9,2.9L4.2,10.8z"
				/>
		</g>
		<g>
			<path class="st0" d="M12.3,17c-1.2,0-2.4-0.5-3.3-1.4l-2.9-2.9l1.2-1.2l2.9,2.9c1.1,1.1,3,1.1,4.2,0c1.1-1.1,1.1-3,0-4.2
				l-2.9-2.9l1.2-1.2L15.6,9c1.8,1.8,1.8,4.8,0,6.6C14.7,16.5,13.5,17,12.3,17z"/>
		</g>
	</g>
	<g>
		<rect x="7.6" y="3.7" transform="matrix(0.7071 -0.7071 0.7071 0.7071 -3.5211 8.501)" class="st0" width="1.7" height="9.6"/>
	</g>
</g>
</svg>
