<?xml version="1.0" encoding="utf-8"?>
<!-- Generator: Adobe Illustrator 21.1.0, SVG Export Plug-In . SVG Version: 6.00 Build 0)  -->
<svg version="1.1" id="Calque_1" xmlns="http://www.w3.org/2000/svg" xmlns:xlink="http://www.w3.org/1999/xlink" x="0px" y="0px"
	 viewBox="0 0 15.8 15.8" style="enable-background:new 0 0 15.8 15.8;" xml:space="preserve">
<style type="text/css">
	.st0{fill:#FFFFFF;}
</style>
<g>
	<path class="st0" d="M7.9,0C3.5,0,0,3.5,0,7.9c0,3.2,1.9,6,4.7,7.2c0-0.6,0-1.2,0.1-1.8C5,12.7,5.9,9,5.9,9S5.6,8.5,5.6,7.8
		c0-1.2,0.7-2,1.5-2c0.7,0,1.1,0.5,1.1,1.2c0,0.7-0.5,1.8-0.7,2.8c-0.2,0.8,0.4,1.5,1.2,1.5c1.5,0,2.5-1.9,2.5-4.2
		c0-1.7-1.2-3-3.3-3C5.6,4,4.1,5.8,4.1,7.8c0,0.7,0.2,1.2,0.5,1.6c0.1,0.2,0.2,0.2,0.1,0.4c0,0.1-0.1,0.5-0.2,0.6
		c-0.1,0.2-0.2,0.3-0.4,0.2c-1.1-0.5-1.6-1.7-1.6-3c0-2.2,1.9-4.9,5.7-4.9c3,0,5,2.2,5,4.5c0,3.1-1.7,5.4-4.3,5.4
		c-0.9,0-1.7-0.5-1.9-1c0,0-0.5,1.8-0.6,2.2C6.3,14.4,6,15,5.7,15.5c0.7,0.2,1.5,0.3,2.2,0.3c4.4,0,7.9-3.5,7.9-7.9
		C15.8,3.5,12.3,0,7.9,0z"/>
</g>
</svg>
