<?xml version="1.0" encoding="utf-8"?>
<!-- Generator: Adobe Illustrator 21.1.0, SVG Export Plug-In . SVG Version: 6.00 Build 0)  -->
<svg version="1.1" id="Calque_1" xmlns="http://www.w3.org/2000/svg" xmlns:xlink="http://www.w3.org/1999/xlink" x="0px" y="0px"
	 viewBox="0 0 15.9 12.9" style="enable-background:new 0 0 15.9 12.9;" xml:space="preserve">
<style type="text/css">
	.st0{fill:#FFFFFF;}
</style>
<g id="XMLID_33_">
	<g id="XMLID_35_">
		<path id="XMLID_32_" class="st0" d="M5,12.9c6,0,9.3-5,9.3-9.3c0-0.1,0-0.3,0-0.4c0.6-0.5,1.2-1,1.6-1.7C15.3,1.8,14.7,2,14,2
			c0.7-0.4,1.2-1,1.4-1.8c-0.6,0.4-1.3,0.6-2.1,0.8c-0.6-0.6-1.4-1-2.4-1C9.2,0,7.7,1.5,7.7,3.3c0,0.3,0,0.5,0.1,0.7
			C5.1,3.9,2.7,2.6,1.1,0.6c-0.3,0.5-0.4,1-0.4,1.6c0,1.1,0.6,2.1,1.5,2.7c-0.5,0-1-0.2-1.5-0.4c0,0,0,0,0,0c0,1.6,1.1,2.9,2.6,3.2
			C3,7.9,2.7,7.9,2.4,7.9c-0.2,0-0.4,0-0.6-0.1c0.4,1.3,1.6,2.2,3,2.3c-1.1,0.9-2.5,1.4-4,1.4c-0.3,0-0.5,0-0.8,0
			C1.4,12.4,3.2,12.9,5,12.9"/>
	</g>
</g>
</svg>
