<?xml version="1.0" encoding="utf-8"?>
<!-- Generator: Adobe Illustrator 21.1.0, SVG Export Plug-In . SVG Version: 6.00 Build 0)  -->
<svg version="1.1" id="Calque_1" xmlns="http://www.w3.org/2000/svg" xmlns:xlink="http://www.w3.org/1999/xlink" x="0px" y="0px"
	 viewBox="0 0 16 16" style="enable-background:new 0 0 16 16;" xml:space="preserve">
<style type="text/css">
	.st0{fill:#FFFFFF;}
</style>
<g>
	<path class="st0" d="M13.8,0H2.2C1,0,0,1,0,2.2v11.7C0,15,1,16,2.2,16h5.8l0-5.7H6.4c-0.2,0-0.3-0.2-0.4-0.3l0-1.8
		c0-0.2,0.2-0.4,0.4-0.4h1.5V6c0-2.1,1.3-3.2,3.1-3.2h1.5c0.2,0,0.4,0.2,0.4,0.4v1.6c0,0.2-0.2,0.4-0.4,0.4l-0.9,0
		c-1,0-1.2,0.5-1.2,1.2v1.5h2.2c0.2,0,0.4,0.2,0.3,0.4L12.7,10c0,0.2-0.2,0.3-0.3,0.3h-2l0,5.7h3.4c1.2,0,2.2-1,2.2-2.2V2.2
		C16,1,15,0,13.8,0L13.8,0z M13.8,0"/>
</g>
</svg>
