<?xml version="1.0" encoding="utf-8"?>
<!-- Generator: Adobe Illustrator 21.1.0, SVG Export Plug-In . SVG Version: 6.00 Build 0)  -->
<svg version="1.1" id="Calque_1" xmlns="http://www.w3.org/2000/svg" xmlns:xlink="http://www.w3.org/1999/xlink" x="0px" y="0px"
	 viewBox="0 0 859.3 470.9" style="enable-background:new 0 0 859.3 470.9;" xml:space="preserve">
<style type="text/css">
	.st0{fill:#FFFFFF;}
</style>
<g>
	<path class="st0" d="M266.5,26.7c-36.3,0-71.6,0-107.8,0c0-9.1,0-17.6,0-26.7c45.1,0,90.1,0,136.7,0c0,3.7,0,7.4,0,11.1
		c0,53.5,0,106.9,0,160.4c0,80-57.6,142.8-137.1,149.7C75.7,328.3,1,260.8,0,178.3c0-1.6,0.2-3.2,0.4-5.5c8.7,0,17.2,0,26.5,0
		c1.2,8.1,2.1,16.3,3.8,24.4c12,59.8,65.9,100.6,126.5,96.1c59.8-4.5,107.9-53.8,109.7-114.8c1.4-48.6,0.4-97.3,0.5-145.9
		C267.2,31.1,266.8,29.5,266.5,26.7z"/>
	<path class="st0" d="M424.7,173.7c14.8,0,29-0.6,43.1,0.1c19.6,1,36.2,18.3,36.5,38.3c0.4,28.1-0.6,46.6-0.6,83.3
		c0,2.6-0.2,5.3-0.7,7.9c-2.8,14.8-8.7,19.3-8.7,19.3s7.7,8.2,9.1,23.7c3.4,40.9,1.1,82.3,1.1,124.1h-28.8c0-4.9,0-9.6,0-14.3
		c0-33.2,0-66.3,0-99.5c0-2.3,0.2-4.5-0.1-6.8c-1-8.3-6.4-11.2-14.1-11.3c-8.2-0.1-10.4,4.6-10.4,11.8c0.1,36.1,0,72.1,0,108.2
		c0,3.8,0,7.6,0,12h-26.5V173.7z M451.3,255.9C451.3,255.9,451.3,255.9,451.3,255.9c0,13.5,0,27-0.1,40.5
		c-0.1,7.2,1.1,12.9,10.3,12.7c9.1-0.2,13.7-4.1,13.9-13.3c0.2-12.9,0.1-25.7,0.1-38.6c0-13.8,0.2-27.6-0.1-41.5
		c-0.2-9-5.3-13.3-14.1-13.3c-9.3-0.1-10.1,6-10,13C451.3,228.9,451.3,242.4,451.3,255.9z"/>
	<path class="st0" d="M367.8,470.7c0-31.8,0-62.7,0-93.5c0-9.7-0.2-19.3,0.1-29c0.2-7.3-2.8-10.4-10.3-10.6
		c-7.7-0.2-12.7,1.7-12.7,10.4c0,10.3,0,20.6,0,30.9c0,30.2,0,60.5,0,91.5c-9.4,0-18.2,0-27.7,0c-0.3-2.4-0.7-4.8-0.7-7.3
		c0-83.1-0.1-166.2,0-249.2c0-18.7,10-32.9,26.4-38.7c16.2-5.8,34.1-1.9,44.4,12c5.2,7.1,9.4,16.8,9.5,25.4
		c0.7,84.4,0.4,168.7,0.4,253.1c0,1.5-0.4,3-0.7,5C387,470.7,378.1,470.7,367.8,470.7z M367.9,258.6c0-14.2-0.1-28.3,0-42.5
		c0.1-7.7-2.3-13.8-11-14c-8.6-0.3-11.8,5.8-11.9,13.3c-0.2,28.3-0.1,56.7-0.1,85c0,8.2,5,9.9,12.2,9.8c7-0.2,10.9-2.2,10.8-10
		C367.6,286.3,367.8,272.5,367.9,258.6z"/>
	<path class="st0" d="M133.3,470.9c-10.2,0-18.8,0-28.3,0c-0.2-3.3-0.4-6.4-0.4-9.5c0-25.1,0-50.3,0-75.4c0-10.9-3.4-16-10.7-16.2
		c-7.8-0.2-11.8,5-11.8,16.4c-0.1,24.2,0,48.3,0,72.5c0,3.8,0,7.6,0,11.9c-9.6,0-18.1,0-27.3,0c-0.2-2.6-0.6-5-0.6-7.5
		c0-27.1-0.2-54.1,0-81.2c0.2-31.6,29.3-49.5,58.2-36.4c4,1.8,10.1,1.8,14.1,0.1c28.8-12.2,57.2,5.7,57.4,37
		c0.2,26.7,0.1,53.5,0,80.2c0,2.5-0.3,5-0.4,7.9c-9.5,0-18.3,0-28.2,0c0-12.6,0-24.8,0-36.9c0-16.4-0.2-32.9,0.1-49.3
		c0.1-7.8-2.2-13.9-10.9-13.9c-8.4,0-11.2,5.8-11.1,13.8c0.2,25.1,0.1,50.3,0.1,75.4C133.3,463.2,133.3,466.6,133.3,470.9z"/>
	<path class="st0" d="M858,313.4c0-21,1.3-40.9-0.3-60.7c-3.4-42.9-35.9-75.4-76.7-78.6c-37.7-3-75.6,25.3-83.4,66.1
		c-4.5,23.3-3,47.8-4.2,72.3c10.9,0,19.5,0,29.5,0c0-18.8-0.2-36.8,0.1-54.7c0.5-30.3,26.6-56,55.6-55.3
		c26.3,0.7,50.4,26.3,51.2,54.7c0.4,16.4-0.1,32.8,0.4,49.3v7H858z"/>
	<path class="st0" d="M532.1,312.9c0-47.1,0-92.7,0-139c15.8,0,31.2-1,46.5,0.3c17.3,1.5,31.7,16.7,32.5,34.2
		c1,22.8,1.3,45.7,0.2,68.4c-1,21.3-17.6,35.7-39.1,36C559,313.1,545.9,312.9,532.1,312.9z M560.6,243.2c0,10.6,0.1,21.2,0,31.8
		c-0.1,6.5,2.9,9.3,9.4,9.3c8.9,0,13-4.5,13.1-13c0.1-13.5,0.1-27,0.1-40.4c0-5.8,0.4-11.6-0.2-17.3c-0.8-8-5.8-11.7-13.9-11.4
		c-8.2,0.4-8.7,5.9-8.6,12.2C560.7,224,560.6,233.6,560.6,243.2z"/>
	<path class="st0" d="M201.3,158.2c11.9,0,23.7,0,36.8,0c0,10.1,0,18.9,0,28.3c-26.4,0-52.3,0-79,0c0-43.4,0-86.6,0-130.3
		c26.3,0,52.2,0,78.8,0c0,9.2,0,18,0,28.3c-12.4,0-24.8,0.2-37.3-0.1c-8-0.2-14.4,1.6-15.2,10.8c-0.6,6.8,5.4,11,14.9,11.1
		c12.2,0.1,24.3,0,37.4,0c0,9.7,0,18.4,0,28.5c-13.1,0-26.2-0.1-39.3,0c-6.9,0.1-12.8,3.1-12.6,10.3
		C185.8,145.1,183.4,158.1,201.3,158.2z"/>
	<path class="st0" d="M713.7,470.6c-9.9,0-18.4,0-28.1,0c0-12.7-0.3-24.8,0.1-36.9c0.3-8.7-3.3-12.1-12-12
		c-8.8,0.1-11,4.5-10.8,12.2c0.3,11.9,0.1,23.8,0.1,36.5c-9.1,0-17.9,0-27.4,0c-0.3-1.4-1-3.1-1-4.9c-0.1-27.4-0.3-54.7,0-82.1
		c0.3-22.4,17.4-39.3,39.1-39.6c21.5-0.3,39,15.3,39.7,37.6C714.4,411,713.7,440.5,713.7,470.6z M673.9,394.4
		c6.3,0.6,11.7-0.4,11.6-8.5c0-7.2-2.8-12.8-10.7-13.1c-8-0.3-11.3,4.8-11.7,12.1C662.6,392.6,666.9,395.1,673.9,394.4z"/>
	<path class="st0" d="M612.4,371.5c-11.4,0-21.6,0-31.8,0c-3.5,0-7.1-0.2-10.6,0.1c-6.9,0.5-12.4,3.5-12.3,10.9
		c0.1,7.7,5.3,11.3,12.8,11.3c13.5,0,27,0,41.2,0c0,9.5,0,18.3,0,28.7c-12.2,0-24.3,0-36.4,0c-15.3,0-18.3,3.2-18.3,18.8
		c0,9.6,0,19.2,0,29.3c-9.1,0-17.3,0-26.1,0c0-42.2,0-84.2,0-127.7h81.6V371.5z"/>
	<path class="st0" d="M213.5,341.4c0,0,16.6,0.2,40.7,0.2c24.2-0.3,34.1,24.3,34.1,43.3s-15.1,35.8-34.2,36.4
		c-13.7,0.5-14.5,1.3-14.5,15.3c0,11.2,0,22.4,0,34.5c-9.4,0-17.4,0-26.1,0C213.5,428.4,213.5,386.1,213.5,341.4 M239.6,381.7
		c0.1,8.4,2.7,11.4,9.8,11.5c8.2,0.2,13.9-4.6,13.5-11.6c-0.4-8-5.7-10.7-13-11C241.8,370.4,239.1,374.8,239.6,381.7z"/>
	<path class="st0" d="M56.6,56v130.5l77.9-0.7c0-9.8,0-18.6,0-27.9c-12,0-23.3,0.1-34.5,0c-12.6-0.1-16.6-4.2-16.6-17
		c-0.1-13.2,0-26.4,0-39.6c0-14.7,0-29.4,0-45.2L56.6,56z"/>
	<path class="st0" d="M859.3,344.9c0,8.9,0,17.1,0,26.6c-5,0-9.5,0.2-13.9-0.1c-8.3-0.5-11.6,3.2-11.5,11.4c0.2,27,0.1,54.1,0,81.1
		c0,1.9-0.3,3.8-0.5,6.5c-8.6,0-17,0-26.8,0c0-12.1,0-24.3,0-36.4c0-16.7-0.4-33.5,0.2-50.2c0.3-9.2-2.9-13.2-12.2-12.4
		c-4.1,0.4-8.2,0.1-12.9,0.1c0-9.3,0-17.6,0-26.6C807.3,344.9,832.9,344.9,859.3,344.9z"/>
	<path class="st0" d="M665.2,312.4c-9,0-17.2,0-26,0c0-46,0-91.6,0-138c8.4,0,16.9,0,26,0C665.2,220.1,665.2,265.7,665.2,312.4z"/>
	<path class="st0" d="M26.3,470.9c-8.8,0-16.8,0-25.7,0c0-42.7,0-85.2,0-128.2c8.6,0,16.8,0,25.7,0
		C26.3,385.5,26.3,427.7,26.3,470.9z"/>
	<path class="st0" d="M760.7,470.9c-8.8,0-16.8,0-25.7,0c0-42.7,0-85.2,0-128.2c8.6,0,16.8,0,25.7,0
		C760.7,385.5,760.7,427.7,760.7,470.9z"/>
	<path class="st0" d="M211.6,341.4"/>
</g>
</svg>
