<?xml version="1.0" encoding="utf-8"?>
<!-- Generator: Adobe Illustrator 21.1.0, SVG Export Plug-In . SVG Version: 6.00 Build 0)  -->
<svg version="1.1" id="Calque_1" xmlns="http://www.w3.org/2000/svg" xmlns:xlink="http://www.w3.org/1999/xlink" x="0px" y="0px"
	 viewBox="0 0 323.3 238.9" style="enable-background:new 0 0 323.3 238.9;" xml:space="preserve">
<style type="text/css">
	.st0{fill:#FFFFFF;}
</style>
<g>
	<path class="st0" d="M167.3,0c11.9,0,23.5,0,35.6,0c0,42.8,0,85.5,0,128.6c-1.3,0.2-2.7,0.5-4.6,0.8c1.6,36.3,3.2,72.5,4.9,109.2
		c-3.9,0-7.6,0-12.1,0c-1.6-36.3-3.3-72.7-5-109.4c-2.5,0-4.4,0-6.9,0c0,36.6,0,73,0,109.6c-4.2,0-7.9,0-11.9,0
		C167.3,159.4,167.3,80,167.3,0z M179.6,12.1c0,35.1,0,69.6,0,104.4c3.9,0,7.4,0,11.1,0c0-35,0-69.6,0-104.4
		C186.8,12.1,183.4,12.1,179.6,12.1z"/>
	<path class="st0" d="M275.1,238.8c-12.1,0-23.7,0-35.6,0c0-79.6,0-159,0-238.7c11.9,0,23.6,0,35.6,0
		C275.1,79.6,275.1,159,275.1,238.8z M251.7,12.2c0,71.7,0,142.9,0,214.2c3.9,0,7.5,0,11.3,0c0-71.5,0-142.7,0-214.2
		C259.2,12.2,255.6,12.2,251.7,12.2z"/>
	<path class="st0" d="M311.7,12.2c-4.5,0-8.1,0-12,0c0,32.9,0,65.5,0,98.7c7.8,0,15.5,0,23.5,0c0,42.9,0,85.1,0,127.8
		c-11.7,0-23.4,0-35.5,0c0-34.3,0-68.6,0-103.3c3.8,0,7.4,0,11.6,0c0,30.3,0,60.5,0,91c4.2,0,7.8,0,11.8,0c0-34.2,0-68.4,0-103.2
		c-7.7,0-15.4,0-23.4,0c0-41.3,0-82.1,0-123.1c11.8,0,23.5,0,35.6,0c0,32.9,0,65.6,0,98.6c-3.7,0-7.3,0-11.5,0
		C311.7,70.1,311.7,41.4,311.7,12.2z"/>
	<path class="st0" d="M10.7,238.9c-4,0-7.2,0-10.7,0C0,159.5,0,80.1,0,0.3c11.2,0,22.6,0,34.3,0c0,79.4,0,158.8,0,238.4
		c-3.7,0-7.3,0-11.6,0c0-37.3,0-74.6,0-112.2c-4.3,0-7.8,0-12,0C10.7,164,10.7,201.2,10.7,238.9z M11,12.2c0,34.2,0,67.9,0,101.6
		c4,0,7.6,0,11.2,0c0-34,0-67.7,0-101.6C18.3,12.2,14.9,12.2,11,12.2z"/>
	<path class="st0" d="M119.2,24.1c11.9,0,23.5,0,35.6,0c0,28.2,0,56.3,0,84.6c-3.9,0-7.6,0-11.9,0c0-24.2,0-48.2,0-72.6
		c-4.2,0-7.7,0-11.6,0c0,27.6,0,55,0,82.7c7.9,0,15.6,0,23.5,0c0,4.1,0,7.8,0,12c-8,0-15.6,0-23.5,0c0,32.1,0,63.9,0,95.8
		c3.7,0,7.1,0,11.3,0c0-28.5,0-57,0-85.8c4.4,0,8.2,0,12.2,0c0,32.7,0,65.3,0,98c-11.9,0-23.6,0-35.6,0
		C119.2,167.4,119.2,96.1,119.2,24.1z"/>
	<path class="st0" d="M82.4,238.8c-12,0-23.6,0-35.5,0c0-30.2,0-60.1,0-90.4c3.8,0,7.5,0,11.6,0c0,26,0,51.9,0,78.2
		c4,0,7.6,0,11.7,0c0-29.5,0-59.2,0-89.4c-7.5,0-15.1,0-23,0c0-37.9,0-75.2,0-112.9c11.9,0,23.6,0,35.7,0c0,29.5,0,58.9,0,88.5
		c-4,0-7.7,0-11.9,0c0-25.5,0-50.8,0-76.5c-4,0-7.6,0-11.6,0c0,29.3,0,58.8,0,88.7c7.6,0,15.1,0,23,0
		C82.4,163.1,82.4,200.7,82.4,238.8z"/>
	<path class="st0" d="M95,11.8c-16.5,0-32,0-47.9,0c0-4.1,0-7.7,0-11.7c35.8,0,71.6,0,107.7,0c0,3.7,0,7.4,0,11.7
		c-15.8,0-31.6,0-47.9,0c0,75.9,0,151.3,0,226.9c-4.2,0-7.8,0-11.9,0C95,163.4,95,88.1,95,11.8z"/>
	<path class="st0" d="M215.6,19.3c4,0,7.6,0,11.5,0c0,73.2,0,146.2,0,219.5c-3.8,0-7.4,0-11.5,0C215.6,165.8,215.6,92.8,215.6,19.3z
		"/>
	<path class="st0" d="M227.1,0.2c0,3.3,0,6.4,0,9.9c-3.8,0-7.5,0-11.6,0c0-3.1,0-6.3,0-9.9C219.2,0.2,223,0.2,227.1,0.2z"/>
</g>
</svg>
