<?xml version="1.0" encoding="utf-8"?>
<!-- Generator: Adobe Illustrator 21.1.0, SVG Export Plug-In . SVG Version: 6.00 Build 0)  -->
<svg version="1.1" id="Calque_1" xmlns="http://www.w3.org/2000/svg" xmlns:xlink="http://www.w3.org/1999/xlink" x="0px" y="0px"
	 viewBox="0 0 386.8 231.3" style="enable-background:new 0 0 386.8 231.3;" xml:space="preserve">
<style type="text/css">
	.st0{fill:#FFFFFF;}
</style>
<g>
	<g>
		<g>
			<g>
				<path class="st0" d="M193.3,92.8c25.6,0,46.4-20.8,46.4-46.4S219,0,193.3,0c-25.6,0-46.4,20.8-46.4,46.4
					C146.9,72,167.7,92.8,193.3,92.8L193.3,92.8z M193.3,36.1c5.7,0,10.3,4.6,10.3,10.2s-4.6,10.3-10.3,10.3
					c-5.6,0-10.2-4.6-10.2-10.3C183.1,40.7,187.6,36.1,193.3,36.1L193.3,36.1z"/>
				<path class="st0" d="M245.7,153c-0.2-3.2-1-20.8-25.8-28.9c-24-7.7-62.6-19.3-62.6-19.3s-6.5-1.7-7.5-6.9
					c-1-5.3,6.4-9.4,7.6-10.1c0.1-0.1,0.8-0.4,0.8-0.4l-0.4-0.7c0,0-1,0.5-1.2,0.5c-2,1-16.9,9.1-15.5,28.6
					c0.2,3.2,1,20.8,25.8,28.8c24,7.8,62.6,19.3,62.6,19.3s6.2,2,7.6,6.9c1.8,6.4-7.3,11.4-9.2,12.4c-0.2,0.1-1.9,0.9-1.9,0.9
					l0.5,0.7c0,0,1.7-0.8,1.9-0.9C231.2,182.8,247.2,174.5,245.7,153L245.7,153z"/>
			</g>
			<g>
				<path class="st0" d="M15.3,211.8h24.1v0.8c0,10.5-9.2,18.7-19.5,18.7C9.3,231.3,0,223.2,0,212.1c0-10.9,9.2-19.2,19.6-19.2
					c9.3,0,16,6.3,17.9,11.6h-8.2c-1.6-2.4-5-5.2-9.9-5.2c-8.3,0-12.7,7.1-12.7,12.9c0,5.6,4.2,12.8,13,12.8c4.5,0,8.8-2.5,10.9-6.8
					H15.3V211.8z"/>
				<path class="st0" d="M66.5,212.2c0-7.1,5.5-12.9,12.5-12.9s12.5,5.8,12.5,12.9c0,6.8-5.4,12.8-12.5,12.8S66.5,219,66.5,212.2z
					 M59.7,212.2c0,10.6,8.7,19.1,19.3,19.1s19.3-8.5,19.3-19.1c0-10.9-8.8-19.3-19.3-19.3S59.7,201.3,59.7,212.2z"/>
				<path class="st0" d="M128.4,214.4h3.6c6,0,6.7,3.4,6.7,4.9c0,4.9-5.5,4.9-6.9,4.9h-3.4L128.4,214.4L128.4,214.4z M122.2,230.6
					h9.9c2.4,0,6.7-0.2,9.5-2.2c2.3-1.6,4.6-4.3,4.6-8.8c0-6.2-3.9-8.3-6.3-9.2c1.1-0.6,4.1-2.4,4.1-7c0-2.5-1.3-5.2-3.1-6.9
					c-3.2-2.9-7.3-2.9-11.4-2.9h-7.3V230.6z M128.4,200.1h2.9c3.9,0,5.3,1.8,5.3,4c0,4-4.3,4-5.9,4h-2.3V200.1z"/>
			</g>
			<g>
				<path class="st0" d="M174.6,193.7h19.8v6.4h-13v9h12.5v6.4h-12.5v8.7h13v6.4h-19.8V193.7z"/>
				<path class="st0" d="M223.1,193.7h6.8v30.5h11.3v6.4h-18.1V193.7z"/>
				<path class="st0" d="M268.1,193.7h6.8v36.9h-6.8V193.7z"/>
			</g>
			<path class="st0" d="M305.6,193.7h7.8l15.3,26.8h0.1v-26.8h6.8v36.9H328l-15.4-26.8h-0.1v26.8h-6.8L305.6,193.7L305.6,193.7z"/>
			<path class="st0" d="M362.8,220c0.4,8.1,7.3,11.3,12,11.3c5.8,0,12-3.8,12-11.8s-6.6-10.4-9.7-11.4c-3.7-1.2-6.1-1.9-6.1-5.1
				c0-2.2,1.6-3.7,3.8-3.7c1.8,0,3.8,0.8,4.1,4.1h7c-0.3-7.5-6.6-10.5-10.9-10.5c-6.2,0-10.8,4.6-10.8,10.5c0,7.8,5.9,9.5,8.8,10.6
				c4.6,1.8,7,2.5,7,6.2c0,2.8-2.4,4.6-5.1,4.6c-2.1,0-4.5-1.2-4.9-4.9L362.8,220L362.8,220z"/>
		</g>
	</g>
</g>
</svg>
