<?xml version="1.0" encoding="utf-8"?>
<!-- Generator: Adobe Illustrator 21.1.0, SVG Export Plug-In . SVG Version: 6.00 Build 0)  -->
<svg version="1.1" id="Calque_1" xmlns="http://www.w3.org/2000/svg" xmlns:xlink="http://www.w3.org/1999/xlink" x="0px" y="0px"
	 viewBox="0 0 556 145.7" style="enable-background:new 0 0 556 145.7;" xml:space="preserve">
<style type="text/css">
	.st0{fill:#FFFFFF;}
</style>
<g>
	<g>
		<path class="st0" d="M51.3,117.5L45.4,143H15.1L0,48h19.2l12,76l10.9-46.5h18.8L71.4,124l12-76h19.2l-15.1,95H57.2L51.3,117.5z"/>
		<path class="st0" d="M161.6,143v-18.6h7V66.6h-7V48h32.5v18.6h-7v57.9h7V143H161.6z"/>
		<path class="st0" d="M292.8,126.9l-23.1-43.7V143h-18.6V48h18.6l23.1,43.9V48h18.6v95h-18.6V126.9z"/>
		<path class="st0" d="M370.1,48h31c24.5,0,33,10.7,33,31.7v31.7c0,21-8.5,31.7-33,31.7h-31V48z M388.7,65.3V126h12.4
			c11.1,0,14.4-3.9,14.4-13.1V78.4c0-9.2-3.1-13.1-14.4-13.1H388.7z"/>
		<path class="st0" d="M492.7,76c0-19.4,9.2-31.7,31.7-31.7c22.5,0,31.7,12.2,31.7,31.7v38c0,19.4-9,31.7-31.4,31.7
			c-21.8,0-33.2-12-31.9-31.7V76z M524.3,127.1c8.7,0,13.1-3.5,13.1-13.1V76c0-8.3-3.5-12.9-13.1-12.9c-9.8,0-13.1,4.6-13.1,12.9v38
			C511.2,122.5,514.7,127.1,524.3,127.1z"/>
	</g>
	<rect x="499.6" class="st0" width="50" height="15.8"/>
</g>
</svg>
