<?xml version="1.0" encoding="utf-8"?>
<!-- Generator: Adobe Illustrator 19.0.0, SVG Export Plug-In . SVG Version: 6.00 Build 0)  -->
<svg version="1.1" id="Calque_1" xmlns="http://www.w3.org/2000/svg" xmlns:xlink="http://www.w3.org/1999/xlink" x="0px" y="0px"
	 viewBox="-484 486.1 54 54" style="enable-background:new -484 486.1 54 54;" xml:space="preserve">
<style type="text/css">
	.st0{fill:#FFFFFF;}
</style>
<g>
	<path class="st0" d="M-472.3,496.4c2.3,2.3,2.3,6.1,0,8.4c-2.3,2.3-6.1,2.3-8.4,0l-3.3,3.2l24.9,24.9l3.2-3.2
		c-2.3-2.3-2.3-6.1,0-8.4c2.3-2.3,6.1-2.3,8.4,0l3.2-3.2l-24.9-24.9L-472.3,496.4z"/>
	<path class="st0" d="M-457,503.2c1.1-2.2,0.7-5-1.2-6.8l3.2-3.2l24.9,24.9l-3.2,3.2c-2.3-2.3-6.1-2.3-8.4,0c-2.3,2.3-2.3,6.1,0,8.4
		l-3.2,3.2l-10.6-10c3-3,6-2,8,0l5-5L-457,503.2z"/>
</g>
</svg>
